{
  "accessors": [
    {
      "bufferView": 2,
      "componentType": 5126,
      "count": 14468,
      "max": [
        2.4638493061065674,
        2.254460334777832,
        0.042870886623859406
      ],
      "min": [
        -2.4586212635040283,
        -0.7776089906692505,
        -0.03532935306429863
      ],
      "type": "VEC3"
    },
    {
      "bufferView": 2,
      "byteOffset": 173616,
      "componentType": 5126,
      "count": 14468,
      "max": [
        0.9999996423721313,
        1.0,
        1.0
      ],
      "min": [
        -0.9999999403953552,
        -1.0,
        -1.0
      ],
      "type": "VEC3"
    },
    {
      "bufferView": 1,
      "componentType": 5126,
      "count": 14468,
      "max": [
        0.9996152520179749,
        0.9910211563110352
      ],
      "min": [
        0.00038480895454995334,
        0.0003848523192573339
      ],
      "type": "VEC2"
    },
    {
      "bufferView": 0,
      "componentType": 5125,
      "count": 77472,
      "type": "SCALAR"
    }
  ],
  "asset": {
    "extras": {
      "author": "Ярослав (https://sketchfab.com/ylevshin.01)",
      "license": "CC-BY-4.0 (http://creativecommons.org/licenses/by/4.0/)",
      "source": "https://sketchfab.com/3d-models/protractor-d9cd6f9f7d5c447c8b6f447b5cd2e2a5",
      "title": "Protractor"
    },
    "generator": "Sketchfab-16.10.0",
    "version": "2.0"
  },
  "bufferViews": [
    {
      "buffer": 0,
      "byteLength": 309888,
      "name": "floatBufferViews",
      "target": 34963
    },
    {
      "buffer": 0,
      "byteLength": 115744,
      "byteOffset": 309888,
      "byteStride": 8,
      "name": "floatBufferViews",
      "target": 34962
    },
    {
      "buffer": 0,
      "byteLength": 347232,
      "byteOffset": 425632,
      "byteStride": 12,
      "name": "floatBufferViews",
      "target": 34962
    }
  ],
  "buffers": [
    {
      "byteLength": 772864,
      "uri": "scene.bin"
    }
  ],
  "images": [
    {
      "uri": "textures/Scene_-_Root_baseColor.png"
    },
    {
      "uri": "textures/Scene_-_Root_metallicRoughness.png"
    }
  ],
  "materials": [
    {
      "doubleSided": true,
      "name": "Scene_-_Root",
      "pbrMetallicRoughness": {
        "baseColorTexture": {
          "index": 0
        },
        "metallicFactor": 0.0,
        "metallicRoughnessTexture": {
          "index": 1
        }
      }
    }
  ],
  "meshes": [
    {
      "name": "Cube__0",
      "primitives": [
        {
          "attributes": {
            "NORMAL": 1,
            "POSITION": 0,
            "TEXCOORD_0": 2
          },
          "indices": 3,
          "material": 0,
          "mode": 4
        }
      ]
    }
  ],
  "nodes": [
    {
      "children": [
        1
      ],
      "matrix": [
        -0.9992642402648926,
        -0.03537536785006523,
        -0.014815993607044229,
        0.0,
        -0.014825272373855114,
        -3.927820419547055e-16,
        0.9998900890350342,
        0.0,
        -0.03537147864699364,
        0.9993740916252136,
        -0.0005244494532232747,
        0.0,
        0.0,
        0.0,
        0.0,
        1.0
      ],
      "name": "Sketchfab_model"
    },
    {
      "children": [
        2
      ],
      "matrix": [
        0.009999999776482582,
        0.0,
        0.0,
        0.0,
        0.0,
        0.0,
        0.009999999776482582,
        0.0,
        0.0,
        -0.009999999776482582,
        0.0,
        0.0,
        0.0,
        0.0,
        0.0,
        1.0
      ],
      "name": "eff776f54bf9455995261c850509825e.fbx"
    },
    {
      "children": [
        3
      ],
      "name": "RootNode"
    },
    {
      "children": [
        4
      ],
      "matrix": [
        -2.3098464343788785,
        -0.05936221848670655,
        -3.488922677968457e-07,
        0.0,
        -0.05936221848669115,
        2.3098464343789025,
        -1.0618954521676819e-07,
        0.0,
        3.5150527657485137e-07,
        -9.719105941006992e-08,
        -2.310609340667696,
        0.0,
        0.527838945388794,
        2.9842350482940674,
        39.400447845458984,
        1.0
      ],
      "name": "Cube"
    },
    {
      "mesh": 0,
      "name": "Cube__0"
    }
  ],
  "samplers": [
    {
      "magFilter": 9729,
      "minFilter": 9987,
      "wrapS": 10497,
      "wrapT": 10497
    }
  ],
  "scene": 0,
  "scenes": [
    {
      "name": "Sketchfab_Scene",
      "nodes": [
        0
      ]
    }
  ],
  "textures": [
    {
      "sampler": 0,
      "source": 0
    },
    {
      "sampler": 0,
      "source": 1
    }
  ]
}
