{
  "accessors": [
    {
      "bufferView": 2,
      "componentType": 5126,
      "count": 6947,
      "max": [
        0.017503933981060982,
        0.01641794852912426,
        0.005578658543527126
      ],
      "min": [
        -0.014519096352159977,
        -0.013630609959363937,
        -0.011372275650501251
      ],
      "type": "VEC3"
    },
    {
      "bufferView": 2,
      "byteOffset": 83364,
      "componentType": 5126,
      "count": 6947,
      "max": [
        1.0,
        1.0,
        1.0
      ],
      "min": [
        -1.0,
        -1.0,
        -1.0
      ],
      "type": "VEC3"
    },
    {
      "bufferView": 3,
      "componentType": 5126,
      "count": 6947,
      "max": [
        1.0,
        1.0,
        1.0,
        1.0
      ],
      "min": [
        -1.0,
        -1.0,
        -1.0,
        -1.0
      ],
      "type": "VEC4"
    },
    {
      "bufferView": 1,
      "componentType": 5126,
      "count": 6947,
      "max": [
        1.007988452911377,
        0.9726338386535645
      ],
      "min": [
        0.0005380928050726652,
        -0.016488242894411087
      ],
      "type": "VEC2"
    },
    {
      "bufferView": 0,
      "componentType": 5125,
      "count": 23454,
      "type": "SCALAR"
    },
    {
      "bufferView": 2,
      "byteOffset": 166728,
      "componentType": 5126,
      "count": 3117,
      "max": [
        0.011870971880853176,
        0.010352729819715023,
        0.005452677607536316
      ],
      "min": [
        -0.012374632991850376,
        -0.011408829130232334,
        -0.0006245890981517732
      ],
      "type": "VEC3"
    },
    {
      "bufferView": 2,
      "byteOffset": 204132,
      "componentType": 5126,
      "count": 3117,
      "max": [
        0.9999750852584839,
        1.0,
        0.9999918937683105
      ],
      "min": [
        -0.9999749660491943,
        -1.0,
        -0.9999786615371704
      ],
      "type": "VEC3"
    },
    {
      "bufferView": 3,
      "byteOffset": 111152,
      "componentType": 5126,
      "count": 3117,
      "max": [
        0.9996125102043152,
        0.9999998807907104,
        0.9999955296516418,
        1.0
      ],
      "min": [
        -0.9999909400939941,
        -0.9999997615814209,
        -0.999978244304657,
        -1.0
      ],
      "type": "VEC4"
    },
    {
      "bufferView": 1,
      "byteOffset": 55576,
      "componentType": 5126,
      "count": 3117,
      "max": [
        0.9996936917304993,
        0.9975491166114807
      ],
      "min": [
        0.00030629211687482893,
        0.00030629211687482893
      ],
      "type": "VEC2"
    },
    {
      "bufferView": 1,
      "byteOffset": 80512,
      "componentType": 5126,
      "count": 3117,
      "max": [
        0.9996936917304993,
        0.9975491166114807
      ],
      "min": [
        0.00030629211687482893,
        0.00030629211687482893
      ],
      "type": "VEC2"
    },
    {
      "bufferView": 1,
      "byteOffset": 105448,
      "componentType": 5126,
      "count": 3117,
      "max": [
        0.9996936917304993,
        0.9975491166114807
      ],
      "min": [
        0.00030629211687482893,
        0.00030629211687482893
      ],
      "type": "VEC2"
    },
    {
      "bufferView": 0,
      "byteOffset": 93816,
      "componentType": 5125,
      "count": 10764,
      "type": "SCALAR"
    }
  ],
  "asset": {
    "extras": {
      "author": "SomeKevin (https://sketchfab.com/SomeKevin)",
      "license": "CC-BY-4.0 (http://creativecommons.org/licenses/by/4.0/)",
      "source": "https://sketchfab.com/3d-models/pencil-sharpener-6422c0d49c4747b0942a5a99a24e45d1",
      "title": "Pencil Sharpener"
    },
    "generator": "Sketchfab-15.44.0",
    "version": "2.0"
  },
  "bufferViews": [
    {
      "buffer": 0,
      "byteLength": 136872,
      "name": "floatBufferViews",
      "target": 34963
    },
    {
      "buffer": 0,
      "byteLength": 130384,
      "byteOffset": 136872,
      "byteStride": 8,
      "name": "floatBufferViews",
      "target": 34962
    },
    {
      "buffer": 0,
      "byteLength": 241536,
      "byteOffset": 267256,
      "byteStride": 12,
      "name": "floatBufferViews",
      "target": 34962
    },
    {
      "buffer": 0,
      "byteLength": 161024,
      "byteOffset": 508792,
      "byteStride": 16,
      "name": "floatBufferViews",
      "target": 34962
    }
  ],
  "buffers": [
    {
      "byteLength": 669816,
      "uri": "scene.bin"
    }
  ],
  "images": [
    {
      "uri": "textures/Material_baseColor.png"
    },
    {
      "uri": "textures/Material_metallicRoughness.png"
    },
    {
      "uri": "textures/Material_normal.png"
    },
    {
      "uri": "textures/medl_baseColor.png"
    },
    {
      "uri": "textures/medl_metallicRoughness.png"
    },
    {
      "uri": "textures/medl_normal.png"
    }
  ],
  "materials": [
    {
      "doubleSided": true,
      "name": "Material",
      "normalTexture": {
        "index": 2
      },
      "pbrMetallicRoughness": {
        "baseColorTexture": {
          "index": 0
        },
        "metallicFactor": 0.0,
        "metallicRoughnessTexture": {
          "index": 1
        }
      }
    },
    {
      "doubleSided": true,
      "name": "medl",
      "normalTexture": {
        "index": 5
      },
      "pbrMetallicRoughness": {
        "baseColorTexture": {
          "index": 3
        },
        "metallicRoughnessTexture": {
          "index": 4
        }
      }
    }
  ],
  "meshes": [
    {
      "name": "Plane.007_Material_0",
      "primitives": [
        {
          "attributes": {
            "NORMAL": 1,
            "POSITION": 0,
            "TANGENT": 2,
            "TEXCOORD_0": 3
          },
          "indices": 4,
          "material": 0,
          "mode": 4
        }
      ]
    },
    {
      "name": "Plane.007_medl_0",
      "primitives": [
        {
          "attributes": {
            "NORMAL": 6,
            "POSITION": 5,
            "TANGENT": 7,
            "TEXCOORD_0": 8,
            "TEXCOORD_1": 9,
            "TEXCOORD_2": 10
          },
          "indices": 11,
          "material": 1,
          "mode": 4
        }
      ]
    }
  ],
  "nodes": [
    {
      "children": [
        1
      ],
      "matrix": [
        1.0,
        0.0,
        0.0,
        0.0,
        0.0,
        2.220446049250313e-16,
        -1.0,
        0.0,
        0.0,
        1.0,
        2.220446049250313e-16,
        0.0,
        0.0,
        0.0,
        0.0,
        1.0
      ],
      "name": "Sketchfab_model"
    },
    {
      "children": [
        2
      ],
      "matrix": [
        0.009999999776482582,
        0.0,
        0.0,
        0.0,
        0.0,
        0.0,
        0.009999999776482582,
        0.0,
        0.0,
        -0.009999999776482582,
        0.0,
        0.0,
        0.0,
        0.0,
        0.0,
        1.0
      ],
      "name": "c09658dca9e940d89e82478e1d2723b4.fbx"
    },
    {
      "children": [
        3
      ],
      "name": "RootNode"
    },
    {
      "children": [
        4,
        5
      ],
      "matrix": [
        100.0,
        0.0,
        0.0,
        0.0,
        0.0,
        -1.629206793918314e-05,
        -99.99999999999868,
        0.0,
        0.0,
        99.99999999999868,
        -1.629206793918314e-05,
        0.0,
        0.0,
        0.0,
        0.0,
        1.0
      ],
      "name": "Plane.007"
    },
    {
      "mesh": 0,
      "name": "Plane.007_Material_0"
    },
    {
      "mesh": 1,
      "name": "Plane.007_medl_0"
    }
  ],
  "samplers": [
    {
      "magFilter": 9729,
      "minFilter": 9987,
      "wrapS": 10497,
      "wrapT": 10497
    }
  ],
  "scene": 0,
  "scenes": [
    {
      "name": "Sketchfab_Scene",
      "nodes": [
        0
      ]
    }
  ],
  "textures": [
    {
      "sampler": 0,
      "source": 0
    },
    {
      "sampler": 0,
      "source": 1
    },
    {
      "sampler": 0,
      "source": 2
    },
    {
      "sampler": 0,
      "source": 3
    },
    {
      "sampler": 0,
      "source": 4
    },
    {
      "sampler": 0,
      "source": 5
    }
  ]
}
