{
  "accessors": [
    {
      "bufferView": 2,
      "componentType": 5126,
      "count": 1402,
      "max": [
        0.004124358296394348,
        0.003634541528299451,
        0.151414692401886
      ],
      "min": [
        -0.004124381113797426,
        -0.0036345806438475847,
        -0.004277362488210201
      ],
      "type": "VEC3"
    },
    {
      "bufferView": 2,
      "byteOffset": 16824,
      "componentType": 5126,
      "count": 1402,
      "max": [
        1.0,
        0.9999778270721436,
        0.999993622303009
      ],
      "min": [
        -1.0,
        -0.9999778270721436,
        -1.0
      ],
      "type": "VEC3"
    },
    {
      "bufferView": 1,
      "componentType": 5126,
      "count": 1402,
      "max": [
        1.0615202188491821,
        0.9803531169891357
      ],
      "min": [
        -0.07765480875968933,
        0.0584733709692955
      ],
      "type": "VEC2"
    },
    {
      "bufferView": 0,
      "componentType": 5125,
      "count": 7350,
      "type": "SCALAR"
    },
    {
      "bufferView": 2,
      "byteOffset": 33648,
      "componentType": 5126,
      "count": 762,
      "max": [
        0.004104271996766329,
        0.003693370381370187,
        0.01347015518695116
      ],
      "min": [
        -0.004104303196072578,
        -0.0036934202071279287,
        -0.01720510795712471
      ],
      "type": "VEC3"
    },
    {
      "bufferView": 2,
      "byteOffset": 42792,
      "componentType": 5126,
      "count": 762,
      "max": [
        1.0,
        0.9993859529495239,
        1.0
      ],
      "min": [
        -1.0,
        -0.9993860125541687,
        -0.9995532631874084
      ],
      "type": "VEC3"
    },
    {
      "bufferView": 1,
      "byteOffset": 11216,
      "componentType": 5126,
      "count": 762,
      "max": [
        0.9735237956047058,
        0.9529242515563965
      ],
      "min": [
        0.9735237956047058,
        0.9529242515563965
      ],
      "type": "VEC2"
    },
    {
      "bufferView": 0,
      "byteOffset": 29400,
      "componentType": 5125,
      "count": 3264,
      "type": "SCALAR"
    },
    {
      "bufferView": 2,
      "byteOffset": 51936,
      "componentType": 5126,
      "count": 1402,
      "max": [
        0.004124358296394348,
        0.003634541528299451,
        0.151414692401886
      ],
      "min": [
        -0.004124381113797426,
        -0.0036345806438475847,
        -0.004277362488210201
      ],
      "type": "VEC3"
    },
    {
      "bufferView": 2,
      "byteOffset": 68760,
      "componentType": 5126,
      "count": 1402,
      "max": [
        1.0,
        0.9999778270721436,
        0.999993622303009
      ],
      "min": [
        -1.0,
        -0.9999778270721436,
        -1.0
      ],
      "type": "VEC3"
    },
    {
      "bufferView": 1,
      "byteOffset": 17312,
      "componentType": 5126,
      "count": 1402,
      "max": [
        1.0615202188491821,
        0.9856615662574768
      ],
      "min": [
        -0.07765480875968933,
        0.0584733709692955
      ],
      "type": "VEC2"
    },
    {
      "bufferView": 0,
      "byteOffset": 42456,
      "componentType": 5125,
      "count": 7350,
      "type": "SCALAR"
    },
    {
      "bufferView": 2,
      "byteOffset": 85584,
      "componentType": 5126,
      "count": 762,
      "max": [
        0.004104271996766329,
        0.003693370381370187,
        0.01347015518695116
      ],
      "min": [
        -0.004104303196072578,
        -0.0036934202071279287,
        -0.01720510795712471
      ],
      "type": "VEC3"
    },
    {
      "bufferView": 2,
      "byteOffset": 94728,
      "componentType": 5126,
      "count": 762,
      "max": [
        1.0,
        0.9993859529495239,
        1.0
      ],
      "min": [
        -1.0,
        -0.9993860125541687,
        -0.9995532631874084
      ],
      "type": "VEC3"
    },
    {
      "bufferView": 1,
      "byteOffset": 28528,
      "componentType": 5126,
      "count": 762,
      "max": [
        0.9750311374664307,
        0.9856615662574768
      ],
      "min": [
        0.9750311374664307,
        0.9856615662574768
      ],
      "type": "VEC2"
    },
    {
      "bufferView": 0,
      "byteOffset": 71856,
      "componentType": 5125,
      "count": 3264,
      "type": "SCALAR"
    },
    {
      "bufferView": 2,
      "byteOffset": 103872,
      "componentType": 5126,
      "count": 1402,
      "max": [
        0.004124358296394348,
        0.003634541528299451,
        0.151414692401886
      ],
      "min": [
        -0.004124381113797426,
        -0.0036345806438475847,
        -0.004277362488210201
      ],
      "type": "VEC3"
    },
    {
      "bufferView": 2,
      "byteOffset": 120696,
      "componentType": 5126,
      "count": 1402,
      "max": [
        1.0,
        0.9999778270721436,
        0.999993622303009
      ],
      "min": [
        -1.0,
        -0.9999778270721436,
        -1.0
      ],
      "type": "VEC3"
    },
    {
      "bufferView": 1,
      "byteOffset": 34624,
      "componentType": 5126,
      "count": 1402,
      "max": [
        1.0615202188491821,
        0.9803531169891357
      ],
      "min": [
        -0.07765480875968933,
        0.0584733709692955
      ],
      "type": "VEC2"
    },
    {
      "bufferView": 0,
      "byteOffset": 84912,
      "componentType": 5125,
      "count": 7350,
      "type": "SCALAR"
    },
    {
      "bufferView": 2,
      "byteOffset": 137520,
      "componentType": 5126,
      "count": 762,
      "max": [
        0.004104271996766329,
        0.003693370381370187,
        0.01347015518695116
      ],
      "min": [
        -0.004104303196072578,
        -0.0036934202071279287,
        -0.01720510795712471
      ],
      "type": "VEC3"
    },
    {
      "bufferView": 2,
      "byteOffset": 146664,
      "componentType": 5126,
      "count": 762,
      "max": [
        1.0,
        0.9993859529495239,
        1.0
      ],
      "min": [
        -1.0,
        -0.9993860125541687,
        -0.9995532631874084
      ],
      "type": "VEC3"
    },
    {
      "bufferView": 1,
      "byteOffset": 45840,
      "componentType": 5126,
      "count": 762,
      "max": [
        0.9700131416320801,
        0.8030058741569519
      ],
      "min": [
        0.9700131416320801,
        0.8030058741569519
      ],
      "type": "VEC2"
    },
    {
      "bufferView": 0,
      "byteOffset": 114312,
      "componentType": 5125,
      "count": 3264,
      "type": "SCALAR"
    },
    {
      "bufferView": 2,
      "byteOffset": 155808,
      "componentType": 5126,
      "count": 1402,
      "max": [
        0.004124358296394348,
        0.003634541528299451,
        0.151414692401886
      ],
      "min": [
        -0.004124381113797426,
        -0.0036345806438475847,
        -0.004277362488210201
      ],
      "type": "VEC3"
    },
    {
      "bufferView": 2,
      "byteOffset": 172632,
      "componentType": 5126,
      "count": 1402,
      "max": [
        1.0,
        0.9999778270721436,
        0.999993622303009
      ],
      "min": [
        -1.0,
        -0.9999778270721436,
        -1.0
      ],
      "type": "VEC3"
    },
    {
      "bufferView": 1,
      "byteOffset": 51936,
      "componentType": 5126,
      "count": 1402,
      "max": [
        1.0615202188491821,
        0.9803531169891357
      ],
      "min": [
        -0.07765480875968933,
        0.0584733709692955
      ],
      "type": "VEC2"
    },
    {
      "bufferView": 0,
      "byteOffset": 127368,
      "componentType": 5125,
      "count": 7350,
      "type": "SCALAR"
    },
    {
      "bufferView": 2,
      "byteOffset": 189456,
      "componentType": 5126,
      "count": 762,
      "max": [
        0.004104271996766329,
        0.003693370381370187,
        0.01347015518695116
      ],
      "min": [
        -0.004104303196072578,
        -0.0036934202071279287,
        -0.01720510795712471
      ],
      "type": "VEC3"
    },
    {
      "bufferView": 2,
      "byteOffset": 198600,
      "componentType": 5126,
      "count": 762,
      "max": [
        1.0,
        0.9993859529495239,
        1.0
      ],
      "min": [
        -1.0,
        -0.9993860125541687,
        -0.9995532631874084
      ],
      "type": "VEC3"
    },
    {
      "bufferView": 1,
      "byteOffset": 63152,
      "componentType": 5126,
      "count": 762,
      "max": [
        0.9749346971511841,
        0.8792901039123535
      ],
      "min": [
        0.9749346971511841,
        0.8792901039123535
      ],
      "type": "VEC2"
    },
    {
      "bufferView": 0,
      "byteOffset": 156768,
      "componentType": 5125,
      "count": 3264,
      "type": "SCALAR"
    },
    {
      "bufferView": 2,
      "byteOffset": 207744,
      "componentType": 5126,
      "count": 1402,
      "max": [
        0.004124358296394348,
        0.003634541528299451,
        0.151414692401886
      ],
      "min": [
        -0.004124381113797426,
        -0.0036345806438475847,
        -0.004277362488210201
      ],
      "type": "VEC3"
    },
    {
      "bufferView": 2,
      "byteOffset": 224568,
      "componentType": 5126,
      "count": 1402,
      "max": [
        1.0,
        0.9999778270721436,
        0.999993622303009
      ],
      "min": [
        -1.0,
        -0.9999778270721436,
        -1.0
      ],
      "type": "VEC3"
    },
    {
      "bufferView": 1,
      "byteOffset": 69248,
      "componentType": 5126,
      "count": 1402,
      "max": [
        1.0615202188491821,
        0.9803531169891357
      ],
      "min": [
        -0.07765480875968933,
        0.0584733709692955
      ],
      "type": "VEC2"
    },
    {
      "bufferView": 0,
      "byteOffset": 169824,
      "componentType": 5125,
      "count": 7350,
      "type": "SCALAR"
    },
    {
      "bufferView": 2,
      "byteOffset": 241392,
      "componentType": 5126,
      "count": 762,
      "max": [
        0.004104271996766329,
        0.003693370381370187,
        0.01347015518695116
      ],
      "min": [
        -0.004104303196072578,
        -0.0036934202071279287,
        -0.01720510795712471
      ],
      "type": "VEC3"
    },
    {
      "bufferView": 2,
      "byteOffset": 250536,
      "componentType": 5126,
      "count": 762,
      "max": [
        1.0,
        0.9993859529495239,
        1.0
      ],
      "min": [
        -1.0,
        -0.9993860125541687,
        -0.9995532631874084
      ],
      "type": "VEC3"
    },
    {
      "bufferView": 1,
      "byteOffset": 80464,
      "componentType": 5126,
      "count": 762,
      "max": [
        0.9773955345153809,
        0.9137411117553711
      ],
      "min": [
        0.9773955345153809,
        0.9137411117553711
      ],
      "type": "VEC2"
    },
    {
      "bufferView": 0,
      "byteOffset": 199224,
      "componentType": 5125,
      "count": 3264,
      "type": "SCALAR"
    },
    {
      "bufferView": 2,
      "byteOffset": 259680,
      "componentType": 5126,
      "count": 1402,
      "max": [
        0.004124358296394348,
        0.003634541528299451,
        0.151414692401886
      ],
      "min": [
        -0.004124381113797426,
        -0.0036345806438475847,
        -0.004277362488210201
      ],
      "type": "VEC3"
    },
    {
      "bufferView": 2,
      "byteOffset": 276504,
      "componentType": 5126,
      "count": 1402,
      "max": [
        1.0,
        0.9999778270721436,
        0.999993622303009
      ],
      "min": [
        -1.0,
        -0.9999778270721436,
        -1.0
      ],
      "type": "VEC3"
    },
    {
      "bufferView": 1,
      "byteOffset": 86560,
      "componentType": 5126,
      "count": 1402,
      "max": [
        1.0615202188491821,
        0.9803531169891357
      ],
      "min": [
        -0.07765480875968933,
        0.0584733709692955
      ],
      "type": "VEC2"
    },
    {
      "bufferView": 0,
      "byteOffset": 212280,
      "componentType": 5125,
      "count": 7350,
      "type": "SCALAR"
    },
    {
      "bufferView": 2,
      "byteOffset": 293328,
      "componentType": 5126,
      "count": 762,
      "max": [
        0.004104271996766329,
        0.003693370381370187,
        0.01347015518695116
      ],
      "min": [
        -0.004104303196072578,
        -0.0036934202071279287,
        -0.01720510795712471
      ],
      "type": "VEC3"
    },
    {
      "bufferView": 2,
      "byteOffset": 302472,
      "componentType": 5126,
      "count": 762,
      "max": [
        1.0,
        0.9993859529495239,
        1.0
      ],
      "min": [
        -1.0,
        -0.9993860125541687,
        -0.9995532631874084
      ],
      "type": "VEC3"
    },
    {
      "bufferView": 1,
      "byteOffset": 97776,
      "componentType": 5126,
      "count": 762,
      "max": [
        0.0426921546459198,
        0.18543130159378052
      ],
      "min": [
        0.0426921546459198,
        0.18543130159378052
      ],
      "type": "VEC2"
    },
    {
      "bufferView": 0,
      "byteOffset": 241680,
      "componentType": 5125,
      "count": 3264,
      "type": "SCALAR"
    },
    {
      "bufferView": 2,
      "byteOffset": 311616,
      "componentType": 5126,
      "count": 1402,
      "max": [
        0.004124358296394348,
        0.003634541528299451,
        0.151414692401886
      ],
      "min": [
        -0.004124381113797426,
        -0.0036345806438475847,
        -0.004277362488210201
      ],
      "type": "VEC3"
    },
    {
      "bufferView": 2,
      "byteOffset": 328440,
      "componentType": 5126,
      "count": 1402,
      "max": [
        1.0,
        0.9999778270721436,
        0.999993622303009
      ],
      "min": [
        -1.0,
        -0.9999778270721436,
        -1.0
      ],
      "type": "VEC3"
    },
    {
      "bufferView": 1,
      "byteOffset": 103872,
      "componentType": 5126,
      "count": 1402,
      "max": [
        1.0615202188491821,
        0.9803531169891357
      ],
      "min": [
        -0.07765480875968933,
        0.0584733709692955
      ],
      "type": "VEC2"
    },
    {
      "bufferView": 0,
      "byteOffset": 254736,
      "componentType": 5125,
      "count": 7350,
      "type": "SCALAR"
    },
    {
      "bufferView": 2,
      "byteOffset": 345264,
      "componentType": 5126,
      "count": 762,
      "max": [
        0.004104271996766329,
        0.003693370381370187,
        0.01347015518695116
      ],
      "min": [
        -0.004104303196072578,
        -0.0036934202071279287,
        -0.01720510795712471
      ],
      "type": "VEC3"
    },
    {
      "bufferView": 2,
      "byteOffset": 354408,
      "componentType": 5126,
      "count": 762,
      "max": [
        1.0,
        0.9993859529495239,
        1.0
      ],
      "min": [
        -1.0,
        -0.9993860125541687,
        -0.9995532631874084
      ],
      "type": "VEC3"
    },
    {
      "bufferView": 1,
      "byteOffset": 115088,
      "componentType": 5126,
      "count": 762,
      "max": [
        0.9749346971511841,
        0.8399176001548767
      ],
      "min": [
        0.9749346971511841,
        0.8399176001548767
      ],
      "type": "VEC2"
    },
    {
      "bufferView": 0,
      "byteOffset": 284136,
      "componentType": 5125,
      "count": 3264,
      "type": "SCALAR"
    }
  ],
  "asset": {
    "extras": {
      "author": "barsoomerian (https://sketchfab.com/barsoomerian)",
      "license": "CC-BY-4.0 (http://creativecommons.org/licenses/by/4.0/)",
      "source": "https://sketchfab.com/3d-models/stablio-color-pen-high-quality-1743535b3d5e4cf5a897fa7b192e136c",
      "title": "Stablio Color Pen High Quality"
    },
    "generator": "Sketchfab-15.77.0",
    "version": "2.0"
  },
  "bufferViews": [
    {
      "buffer": 0,
      "byteLength": 297192,
      "name": "floatBufferViews",
      "target": 34963
    },
    {
      "buffer": 0,
      "byteLength": 121184,
      "byteOffset": 297192,
      "byteStride": 8,
      "name": "floatBufferViews",
      "target": 34962
    },
    {
      "buffer": 0,
      "byteLength": 363552,
      "byteOffset": 418376,
      "byteStride": 12,
      "name": "floatBufferViews",
      "target": 34962
    }
  ],
  "buffers": [
    {
      "byteLength": 781928,
      "uri": "scene.bin"
    }
  ],
  "images": [
    {
      "uri": "textures/Stabilo_Pen_MTL_baseColor.png"
    }
  ],
  "materials": [
    {
      "doubleSided": true,
      "name": "Stabilo_Pen_MTL",
      "pbrMetallicRoughness": {
        "baseColorTexture": {
          "index": 0
        },
        "metallicFactor": 0.0,
        "roughnessFactor": 0.5
      }
    }
  ],
  "meshes": [
    {
      "name": "Object_0",
      "primitives": [
        {
          "attributes": {
            "NORMAL": 1,
            "POSITION": 0,
            "TEXCOORD_0": 2
          },
          "indices": 3,
          "material": 0,
          "mode": 4
        }
      ]
    },
    {
      "name": "Object_1",
      "primitives": [
        {
          "attributes": {
            "NORMAL": 5,
            "POSITION": 4,
            "TEXCOORD_0": 6
          },
          "indices": 7,
          "material": 0,
          "mode": 4
        }
      ]
    },
    {
      "name": "Object_2",
      "primitives": [
        {
          "attributes": {
            "NORMAL": 9,
            "POSITION": 8,
            "TEXCOORD_0": 10
          },
          "indices": 11,
          "material": 0,
          "mode": 4
        }
      ]
    },
    {
      "name": "Object_3",
      "primitives": [
        {
          "attributes": {
            "NORMAL": 13,
            "POSITION": 12,
            "TEXCOORD_0": 14
          },
          "indices": 15,
          "material": 0,
          "mode": 4
        }
      ]
    },
    {
      "name": "Object_4",
      "primitives": [
        {
          "attributes": {
            "NORMAL": 17,
            "POSITION": 16,
            "TEXCOORD_0": 18
          },
          "indices": 19,
          "material": 0,
          "mode": 4
        }
      ]
    },
    {
      "name": "Object_5",
      "primitives": [
        {
          "attributes": {
            "NORMAL": 21,
            "POSITION": 20,
            "TEXCOORD_0": 22
          },
          "indices": 23,
          "material": 0,
          "mode": 4
        }
      ]
    },
    {
      "name": "Object_6",
      "primitives": [
        {
          "attributes": {
            "NORMAL": 25,
            "POSITION": 24,
            "TEXCOORD_0": 26
          },
          "indices": 27,
          "material": 0,
          "mode": 4
        }
      ]
    },
    {
      "name": "Object_7",
      "primitives": [
        {
          "attributes": {
            "NORMAL": 29,
            "POSITION": 28,
            "TEXCOORD_0": 30
          },
          "indices": 31,
          "material": 0,
          "mode": 4
        }
      ]
    },
    {
      "name": "Object_8",
      "primitives": [
        {
          "attributes": {
            "NORMAL": 33,
            "POSITION": 32,
            "TEXCOORD_0": 34
          },
          "indices": 35,
          "material": 0,
          "mode": 4
        }
      ]
    },
    {
      "name": "Object_9",
      "primitives": [
        {
          "attributes": {
            "NORMAL": 37,
            "POSITION": 36,
            "TEXCOORD_0": 38
          },
          "indices": 39,
          "material": 0,
          "mode": 4
        }
      ]
    },
    {
      "name": "Object_10",
      "primitives": [
        {
          "attributes": {
            "NORMAL": 41,
            "POSITION": 40,
            "TEXCOORD_0": 42
          },
          "indices": 43,
          "material": 0,
          "mode": 4
        }
      ]
    },
    {
      "name": "Object_11",
      "primitives": [
        {
          "attributes": {
            "NORMAL": 45,
            "POSITION": 44,
            "TEXCOORD_0": 46
          },
          "indices": 47,
          "material": 0,
          "mode": 4
        }
      ]
    },
    {
      "name": "Object_12",
      "primitives": [
        {
          "attributes": {
            "NORMAL": 49,
            "POSITION": 48,
            "TEXCOORD_0": 50
          },
          "indices": 51,
          "material": 0,
          "mode": 4
        }
      ]
    },
    {
      "name": "Object_13",
      "primitives": [
        {
          "attributes": {
            "NORMAL": 53,
            "POSITION": 52,
            "TEXCOORD_0": 54
          },
          "indices": 55,
          "material": 0,
          "mode": 4
        }
      ]
    }
  ],
  "nodes": [
    {
      "children": [
        1
      ],
      "matrix": [
        1.0,
        0.0,
        0.0,
        0.0,
        0.0,
        2.220446049250313e-16,
        -1.0,
        0.0,
        0.0,
        1.0,
        2.220446049250313e-16,
        0.0,
        0.0,
        0.0,
        0.0,
        1.0
      ],
      "name": "Sketchfab_model"
    },
    {
      "children": [
        2
      ],
      "name": "root"
    },
    {
      "children": [
        3,
        5,
        7,
        9,
        11,
        13,
        15,
        17,
        19,
        21,
        23,
        25,
        27,
        29
      ],
      "matrix": [
        1.0,
        0.0,
        0.0,
        0.0,
        0.0,
        2.220446049250313e-16,
        1.0,
        0.0,
        0.0,
        -1.0,
        2.220446049250313e-16,
        0.0,
        0.0,
        0.0,
        0.0,
        1.0
      ],
      "name": "GLTF_SceneRootNode"
    },
    {
      "children": [
        4
      ],
      "matrix": [
        0.5000000828614433,
        -0.8660253559443556,
        -4.352740283711534e-08,
        0.0,
        -0.8660253559443556,
        -0.5000000828614393,
        -7.539168156481942e-08,
        0.0,
        4.352740283711534e-08,
        7.539168156481942e-08,
        -0.999999999999996,
        0.0,
        -0.05000000074505806,
        0.003730952739715576,
        0.09000000357627869,
        1.0
      ],
      "name": "Stabilo_A_0"
    },
    {
      "mesh": 0,
      "name": "Object_4"
    },
    {
      "children": [
        6
      ],
      "matrix": [
        -0.9999999999996247,
        0.0,
        -8.662515256217569e-07,
        0.0,
        0.0,
        1.0,
        0.0,
        0.0,
        8.662515256217569e-07,
        0.0,
        -0.9999999999996247,
        0.0,
        -0.04999995976686478,
        0.0037309417966753244,
        -0.05950036644935608,
        1.0
      ],
      "name": "Stabilo_A_Cover_1"
    },
    {
      "mesh": 1,
      "name": "Object_6"
    },
    {
      "children": [
        8
      ],
      "matrix": [
        0.5000000828614433,
        -0.8660253559443556,
        -4.352740283711534e-08,
        0.0,
        -0.8660253559443556,
        -0.5000000828614393,
        -7.539168156481942e-08,
        0.0,
        4.352740283711534e-08,
        7.539168156481942e-08,
        -0.999999999999996,
        0.0,
        -0.03999999910593033,
        0.003730952739715576,
        0.09000000357627869,
        1.0
      ],
      "name": "Stabilo_B_2"
    },
    {
      "mesh": 2,
      "name": "Object_8"
    },
    {
      "children": [
        10
      ],
      "matrix": [
        -0.9999999999996247,
        0.0,
        -8.662515256217569e-07,
        0.0,
        0.0,
        1.0,
        0.0,
        0.0,
        8.662515256217569e-07,
        0.0,
        -0.9999999999996247,
        0.0,
        -0.039999961853027344,
        0.0037309417966753244,
        -0.059500377625226974,
        1.0
      ],
      "name": "Stabilo_B_Cover_3"
    },
    {
      "mesh": 3,
      "name": "Object_10"
    },
    {
      "children": [
        12
      ],
      "matrix": [
        -0.4999999865383187,
        0.8660254115559579,
        -1.0073165123966787e-06,
        0.0,
        0.8660254115559579,
        0.49999998653899524,
        5.815744700296107e-07,
        0.0,
        1.0073165123966787e-06,
        -5.815744700296107e-07,
        -0.9999999999993234,
        0.0,
        -0.029999999329447746,
        0.003730952739715576,
        0.09000000357627869,
        1.0
      ],
      "name": "Stabilo_C_4"
    },
    {
      "mesh": 4,
      "name": "Object_12"
    },
    {
      "children": [
        14
      ],
      "matrix": [
        -0.9999999999999467,
        0.0,
        3.258413698858844e-07,
        0.0,
        0.0,
        1.0,
        0.0,
        0.0,
        -3.258413698858844e-07,
        0.0,
        -0.9999999999999467,
        0.0,
        -0.029999997466802597,
        0.003730952739715576,
        -0.05950035899877548,
        1.0
      ],
      "name": "Stabilo_C_Cover_5"
    },
    {
      "mesh": 5,
      "name": "Object_14"
    },
    {
      "children": [
        16
      ],
      "matrix": [
        1.0,
        0.0,
        0.0,
        0.0,
        0.0,
        1.0,
        0.0,
        0.0,
        0.0,
        0.0,
        1.0,
        0.0,
        -0.009999999776482582,
        0.003730952739715576,
        -0.10000000149011612,
        1.0
      ],
      "name": "Stabilo_D_6"
    },
    {
      "mesh": 6,
      "name": "Object_16"
    },
    {
      "children": [
        18
      ],
      "matrix": [
        1.0,
        0.0,
        0.0,
        0.0,
        0.0,
        1.0,
        0.0,
        0.0,
        0.0,
        0.0,
        1.0,
        0.0,
        -0.009999999776482582,
        0.003730952739715576,
        0.049500368535518646,
        1.0
      ],
      "name": "Stabilo_D_Cover_7"
    },
    {
      "mesh": 7,
      "name": "Object_18"
    },
    {
      "children": [
        20
      ],
      "matrix": [
        0.9945218945413014,
        0.0,
        0.104528471135766,
        0.0,
        0.0,
        1.0,
        0.0,
        0.0,
        -0.104528471135766,
        0.0,
        0.9945218945413014,
        0.0,
        0.01679140515625477,
        0.003730952739715576,
        -0.0706607922911644,
        1.0
      ],
      "name": "Stabilo_E_8"
    },
    {
      "mesh": 8,
      "name": "Object_20"
    },
    {
      "children": [
        22
      ],
      "matrix": [
        0.9945218953190318,
        0.0,
        0.10452846373615511,
        0.0,
        0.0,
        1.0,
        0.0,
        0.0,
        -0.10452846373615511,
        0.0,
        0.9945218953190318,
        0.0,
        0.0011643271427601576,
        0.003730952739715576,
        0.07802076637744904,
        1.0
      ],
      "name": "Stabilo_E_Cover_9"
    },
    {
      "mesh": 9,
      "name": "Object_22"
    },
    {
      "children": [
        24
      ],
      "matrix": [
        1.0,
        0.0,
        0.0,
        0.0,
        0.0,
        1.0,
        0.0,
        0.0,
        0.0,
        0.0,
        1.0,
        0.0,
        0.029999999329447746,
        0.003730952739715576,
        -0.09000000357627869,
        1.0
      ],
      "name": "Stabilo_F_10"
    },
    {
      "mesh": 10,
      "name": "Object_24"
    },
    {
      "children": [
        26
      ],
      "matrix": [
        1.0,
        0.0,
        0.0,
        0.0,
        0.0,
        1.0,
        0.0,
        0.0,
        0.0,
        0.0,
        1.0,
        0.0,
        0.029999999329447746,
        0.003730952739715576,
        0.05950036644935608,
        1.0
      ],
      "name": "Stabilo_F_Cover_11"
    },
    {
      "mesh": 11,
      "name": "Object_26"
    },
    {
      "children": [
        28
      ],
      "matrix": [
        -0.9781476196549572,
        0.0,
        -0.20791160180071988,
        0.0,
        0.0,
        1.0,
        0.0,
        0.0,
        0.20791160180071988,
        0.0,
        -0.9781476196549572,
        0.0,
        0.03987109661102295,
        0.003730952739715576,
        0.10030608624219894,
        1.0
      ],
      "name": "Stabilo_G_12"
    },
    {
      "mesh": 12,
      "name": "Object_28"
    },
    {
      "children": [
        30
      ],
      "matrix": [
        -0.9848077453671009,
        0.0,
        0.1736482210244831,
        0.0,
        0.0,
        1.0,
        0.0,
        0.0,
        -0.1736482210244831,
        0.0,
        -0.9848077453671009,
        0.0,
        0.049258071929216385,
        0.003730952739715576,
        -0.05164315178990364,
        1.0
      ],
      "name": "Stabilo_G_Cover_13"
    },
    {
      "mesh": 13,
      "name": "Object_30"
    }
  ],
  "samplers": [
    {
      "magFilter": 9729,
      "minFilter": 9987,
      "wrapS": 10497,
      "wrapT": 10497
    }
  ],
  "scene": 0,
  "scenes": [
    {
      "name": "Sketchfab_Scene",
      "nodes": [
        0
      ]
    }
  ],
  "textures": [
    {
      "sampler": 0,
      "source": 0
    }
  ]
}
