{
  "accessors": [
    {
      "bufferView": 2,
      "componentType": 5126,
      "count": 3400,
      "max": [
        3.298940420150757,
        5.25994873046875,
        2.6391899585723877
      ],
      "min": [
        -3.298941135406494,
        0.0,
        -2.6391897201538086
      ],
      "type": "VEC3"
    },
    {
      "bufferView": 2,
      "byteOffset": 40800,
      "componentType": 5126,
      "count": 3400,
      "max": [
        0.9999640583992004,
        0.9999692440032959,
        1.0
      ],
      "min": [
        -0.9999640583992004,
        -0.9999799132347107,
        -1.0
      ],
      "type": "VEC3"
    },
    {
      "bufferView": 3,
      "componentType": 5126,
      "count": 3400,
      "max": [
        0.9999780654907227,
        0.9999989867210388,
        1.0,
        1.0
      ],
      "min": [
        -0.9999290108680725,
        -0.9999985098838806,
        -1.0,
        -1.0
      ],
      "type": "VEC4"
    },
    {
      "bufferView": 1,
      "componentType": 5126,
      "count": 3400,
      "max": [
        0.9256004095077515,
        0.998008131980896
      ],
      "min": [
        0.0018310938030481339,
        0.002520444802939892
      ],
      "type": "VEC2"
    },
    {
      "bufferView": 0,
      "componentType": 5125,
      "count": 14769,
      "type": "SCALAR"
    }
  ],
  "asset": {
    "extras": {
      "author": "studio lab (https://sketchfab.com/leonlabyk)",
      "license": "CC-BY-4.0 (http://creativecommons.org/licenses/by/4.0/)",
      "source": "https://sketchfab.com/3d-models/binder-clip-ca2bd6ceed60492ca31707ac23727a1a",
      "title": "Binder Clip"
    },
    "generator": "Sketchfab-15.18.0",
    "version": "2.0"
  },
  "bufferViews": [
    {
      "buffer": 0,
      "byteLength": 59076,
      "name": "floatBufferViews",
      "target": 34963
    },
    {
      "buffer": 0,
      "byteLength": 27200,
      "byteOffset": 59076,
      "byteStride": 8,
      "name": "floatBufferViews",
      "target": 34962
    },
    {
      "buffer": 0,
      "byteLength": 81600,
      "byteOffset": 86276,
      "byteStride": 12,
      "name": "floatBufferViews",
      "target": 34962
    },
    {
      "buffer": 0,
      "byteLength": 54400,
      "byteOffset": 167876,
      "byteStride": 16,
      "name": "floatBufferViews",
      "target": 34962
    }
  ],
  "buffers": [
    {
      "byteLength": 222276,
      "uri": "tf.bin"
    }
  ],
  "images": [
    {
      "uri": "textures/BlinderClipShader_baseColor.png"
    },
    {
      "uri": "textures/BlinderClipShader_metallicRoughness.png"
    },
    {
      "uri": "textures/BlinderClipShader_normal.png"
    }
  ],
  "materials": [
    {
      "doubleSided": true,
      "name": "BlinderClipShader",
      "normalTexture": {
        "index": 2
      },
      "occlusionTexture": {
        "index": 1
      },
      "pbrMetallicRoughness": {
        "baseColorTexture": {
          "index": 0
        },
        "metallicRoughnessTexture": {
          "index": 1
        }
      }
    }
  ],
  "meshes": [
    {
      "name": "BlinderClip_BlinderClipShader_0",
      "primitives": [
        {
          "attributes": {
            "NORMAL": 1,
            "POSITION": 0,
            "TANGENT": 2,
            "TEXCOORD_0": 3
          },
          "indices": 4,
          "material": 0,
          "mode": 4
        }
      ]
    }
  ],
  "nodes": [
    {
      "children": [
        1
      ],
      "matrix": [
        1.0,
        0.0,
        0.0,
        0.0,
        0.0,
        2.220446049250313e-16,
        -1.0,
        0.0,
        0.0,
        1.0,
        2.220446049250313e-16,
        0.0,
        0.0,
        0.0,
        0.0,
        1.0
      ],
      "name": "Sketchfab_model"
    },
    {
      "children": [
        2
      ],
      "matrix": [
        0.009999999776482582,
        0.0,
        0.0,
        0.0,
        0.0,
        0.0,
        0.009999999776482582,
        0.0,
        0.0,
        -0.009999999776482582,
        0.0,
        0.0,
        0.0,
        0.0,
        0.0,
        1.0
      ],
      "name": "f44036000ae249079d002885f9fe73f3.fbx"
    },
    {
      "children": [
        3
      ],
      "name": "RootNode"
    },
    {
      "children": [
        4
      ],
      "name": "BlinderClip"
    },
    {
      "mesh": 0,
      "name": "BlinderClip_BlinderClipShader_0"
    }
  ],
  "samplers": [
    {
      "magFilter": 9729,
      "minFilter": 9987,
      "wrapS": 10497,
      "wrapT": 10497
    }
  ],
  "scene": 0,
  "scenes": [
    {
      "name": "Sketchfab_Scene",
      "nodes": [
        0
      ]
    }
  ],
  "textures": [
    {
      "sampler": 0,
      "source": 0
    },
    {
      "sampler": 0,
      "source": 1
    },
    {
      "sampler": 0,
      "source": 2
    }
  ]
}
