{
  "accessors": [
    {
      "bufferView": 2,
      "componentType": 5126,
      "count": 525,
      "max": [
        0.999779999256134,
        1.0,
        1.0
      ],
      "min": [
        -0.999779999256134,
        -0.9991199970245361,
        -1.4164600372314453
      ],
      "type": "VEC3"
    },
    {
      "bufferView": 2,
      "byteOffset": 6300,
      "componentType": 5126,
      "count": 525,
      "max": [
        0.7467600107192993,
        0.7469175457954407,
        0.6920353770256042
      ],
      "min": [
        -0.7467600107192993,
        -0.7462564706802368,
        -0.9626047015190125
      ],
      "type": "VEC3"
    },
    {
      "bufferView": 1,
      "componentType": 5126,
      "count": 525,
      "max": [
        0.0,
        0.0
      ],
      "min": [
        0.0,
        0.0
      ],
      "type": "VEC2"
    },
    {
      "bufferView": 0,
      "componentType": 5125,
      "count": 2250,
      "type": "SCALAR"
    },
    {
      "bufferView": 2,
      "byteOffset": 12600,
      "componentType": 5126,
      "count": 2700,
      "max": [
        1.1123600006103516,
        1.5495699644088745,
        1.4341299533843994
      ],
      "min": [
        -1.1123600006103516,
        -1.1116299629211426,
        -1.1811599731445313
      ],
      "type": "VEC3"
    },
    {
      "bufferView": 2,
      "byteOffset": 45000,
      "componentType": 5126,
      "count": 2700,
      "max": [
        0.9997807145118713,
        1.0,
        1.0
      ],
      "min": [
        -0.9997807145118713,
        -0.9991230964660645,
        -0.9999826550483704
      ],
      "type": "VEC3"
    },
    {
      "bufferView": 1,
      "byteOffset": 4200,
      "componentType": 5126,
      "count": 2700,
      "max": [
        0.9999499917030334,
        0.23427000641822815
      ],
      "min": [
        0.0,
        0.0
      ],
      "type": "VEC2"
    },
    {
      "bufferView": 0,
      "byteOffset": 9000,
      "componentType": 5125,
      "count": 15060,
      "type": "SCALAR"
    },
    {
      "bufferView": 2,
      "byteOffset": 77400,
      "componentType": 5126,
      "count": 825,
      "max": [
        0.999779999256134,
        1.0,
        0.7454900145530701
      ],
      "min": [
        -0.999779999256134,
        -0.9991199970245361,
        -1.0429999828338623
      ],
      "type": "VEC3"
    },
    {
      "bufferView": 2,
      "byteOffset": 87300,
      "componentType": 5126,
      "count": 825,
      "max": [
        0.9997807145118713,
        1.0,
        0.0
      ],
      "min": [
        -0.9997807145118713,
        -0.9991230964660645,
        -0.9302290081977844
      ],
      "type": "VEC3"
    },
    {
      "bufferView": 1,
      "byteOffset": 25800,
      "componentType": 5126,
      "count": 825,
      "max": [
        1.0,
        1.0
      ],
      "min": [
        0.0,
        0.0
      ],
      "type": "VEC2"
    },
    {
      "bufferView": 0,
      "byteOffset": 69240,
      "componentType": 5125,
      "count": 1350,
      "type": "SCALAR"
    },
    {
      "bufferView": 2,
      "byteOffset": 97200,
      "componentType": 5126,
      "count": 600,
      "max": [
        0.999779999256134,
        1.0,
        1.505270004272461
      ],
      "min": [
        -0.9998000264167786,
        -0.9991199970245361,
        0.7454900145530701
      ],
      "type": "VEC3"
    },
    {
      "bufferView": 2,
      "byteOffset": 104400,
      "componentType": 5126,
      "count": 600,
      "max": [
        0.9997807145118713,
        1.0,
        0.697830855846405
      ],
      "min": [
        -0.9997807145118713,
        -0.9991230964660645,
        0.0
      ],
      "type": "VEC3"
    },
    {
      "bufferView": 1,
      "byteOffset": 32400,
      "componentType": 5126,
      "count": 600,
      "max": [
        1.0,
        1.0
      ],
      "min": [
        0.0,
        0.0
      ],
      "type": "VEC2"
    },
    {
      "bufferView": 0,
      "byteOffset": 74640,
      "componentType": 5125,
      "count": 1119,
      "type": "SCALAR"
    },
    {
      "bufferView": 2,
      "byteOffset": 111600,
      "componentType": 5126,
      "count": 2565,
      "max": [
        0.8500499725341797,
        0.8502399921417236,
        -1.0429999828338623
      ],
      "min": [
        -0.8500499725341797,
        -0.8494899868965149,
        -1.1345800161361694
      ],
      "type": "VEC3"
    },
    {
      "bufferView": 2,
      "byteOffset": 142380,
      "componentType": 5126,
      "count": 2565,
      "max": [
        1.0,
        1.0,
        1.0
      ],
      "min": [
        -1.0,
        -1.0,
        -1.0
      ],
      "type": "VEC3"
    },
    {
      "bufferView": 1,
      "byteOffset": 37200,
      "componentType": 5126,
      "count": 2565,
      "max": [
        1.0,
        1.0
      ],
      "min": [
        0.0,
        0.0
      ],
      "type": "VEC2"
    },
    {
      "bufferView": 0,
      "byteOffset": 79116,
      "componentType": 5125,
      "count": 3999,
      "type": "SCALAR"
    },
    {
      "bufferView": 2,
      "byteOffset": 173160,
      "componentType": 5126,
      "count": 375,
      "max": [
        0.7132300138473511,
        0.7133899927139282,
        1.7086600065231323
      ],
      "min": [
        -0.7132300138473511,
        -0.7127599716186523,
        1.424649953842163
      ],
      "type": "VEC3"
    },
    {
      "bufferView": 2,
      "byteOffset": 177660,
      "componentType": 5126,
      "count": 375,
      "max": [
        0.948166012763977,
        0.9483737945556641,
        0.9997676014900208
      ],
      "min": [
        -0.948166012763977,
        -0.9475406408309937,
        0.3171517848968506
      ],
      "type": "VEC3"
    },
    {
      "bufferView": 0,
      "byteOffset": 95112,
      "componentType": 5125,
      "count": 2019,
      "type": "SCALAR"
    },
    {
      "bufferView": 3,
      "componentType": 5126,
      "count": 62,
      "max": [
        4.166669845581055
      ],
      "min": [
        0.041669998317956924
      ],
      "type": "SCALAR"
    },
    {
      "bufferView": 4,
      "componentType": 5126,
      "count": 62,
      "max": [
        0.3839600086212158,
        0.0,
        0.0
      ],
      "min": [
        -0.3820199966430664,
        0.0,
        0.0
      ],
      "type": "VEC3"
    },
    {
      "bufferView": 3,
      "byteOffset": 248,
      "componentType": 5126,
      "count": 2,
      "max": [
        4.166669845581055
      ],
      "min": [
        0.041669998317956924
      ],
      "type": "SCALAR"
    },
    {
      "bufferView": 5,
      "componentType": 5126,
      "count": 2,
      "max": [
        0.5,
        0.5,
        0.5,
        0.5
      ],
      "min": [
        0.5,
        0.5,
        0.5,
        0.5
      ],
      "type": "VEC4"
    },
    {
      "bufferView": 3,
      "byteOffset": 256,
      "componentType": 5126,
      "count": 2,
      "max": [
        4.166669845581055
      ],
      "min": [
        0.041669998317956924
      ],
      "type": "SCALAR"
    },
    {
      "bufferView": 4,
      "byteOffset": 744,
      "componentType": 5126,
      "count": 2,
      "max": [
        0.41047999262809753,
        0.41047999262809753,
        3.373150110244751
      ],
      "min": [
        0.41047999262809753,
        0.41047999262809753,
        3.373150110244751
      ],
      "type": "VEC3"
    },
    {
      "bufferView": 3,
      "byteOffset": 264,
      "componentType": 5126,
      "count": 62,
      "max": [
        4.166669845581055
      ],
      "min": [
        0.041669998317956924
      ],
      "type": "SCALAR"
    },
    {
      "bufferView": 4,
      "byteOffset": 768,
      "componentType": 5126,
      "count": 62,
      "max": [
        -1.1917699575424194,
        0.0,
        0.0
      ],
      "min": [
        -1.4836900234222412,
        0.0,
        0.0
      ],
      "type": "VEC3"
    },
    {
      "bufferView": 3,
      "byteOffset": 512,
      "componentType": 5126,
      "count": 2,
      "max": [
        4.166669845581055
      ],
      "min": [
        0.041669998317956924
      ],
      "type": "SCALAR"
    },
    {
      "bufferView": 5,
      "byteOffset": 32,
      "componentType": 5126,
      "count": 2,
      "max": [
        0.0,
        0.7071099877357483,
        0.0,
        0.7071099877357483
      ],
      "min": [
        0.0,
        0.7071099877357483,
        0.0,
        0.7071099877357483
      ],
      "type": "VEC4"
    },
    {
      "bufferView": 3,
      "byteOffset": 520,
      "componentType": 5126,
      "count": 2,
      "max": [
        4.166669845581055
      ],
      "min": [
        0.041669998317956924
      ],
      "type": "SCALAR"
    },
    {
      "bufferView": 4,
      "byteOffset": 1512,
      "componentType": 5126,
      "count": 2,
      "max": [
        0.10611999779939651,
        0.10611999779939651,
        3.449700117111206
      ],
      "min": [
        0.10611999779939651,
        0.10611999779939651,
        3.449700117111206
      ],
      "type": "VEC3"
    }
  ],
  "animations": [
    {
      "channels": [
        {
          "sampler": 0,
          "target": {
            "node": 11,
            "path": "translation"
          }
        },
        {
          "sampler": 1,
          "target": {
            "node": 11,
            "path": "rotation"
          }
        },
        {
          "sampler": 2,
          "target": {
            "node": 11,
            "path": "scale"
          }
        },
        {
          "sampler": 3,
          "target": {
            "node": 7,
            "path": "translation"
          }
        },
        {
          "sampler": 4,
          "target": {
            "node": 7,
            "path": "rotation"
          }
        },
        {
          "sampler": 5,
          "target": {
            "node": 7,
            "path": "scale"
          }
        }
      ],
      "name": "Take 01",
      "samplers": [
        {
          "input": 23,
          "interpolation": "LINEAR",
          "output": 24
        },
        {
          "input": 25,
          "interpolation": "LINEAR",
          "output": 26
        },
        {
          "input": 27,
          "interpolation": "LINEAR",
          "output": 28
        },
        {
          "input": 29,
          "interpolation": "LINEAR",
          "output": 30
        },
        {
          "input": 31,
          "interpolation": "LINEAR",
          "output": 32
        },
        {
          "input": 33,
          "interpolation": "LINEAR",
          "output": 34
        }
      ]
    }
  ],
  "asset": {
    "extras": {
      "author": "TrentPierce (https://sketchfab.com/TrentPierce)",
      "license": "CC-BY-4.0 (http://creativecommons.org/licenses/by/4.0/)",
      "source": "https://sketchfab.com/3d-models/ink-pen-f46015d9a3c6420182dcaf95d4a0be03",
      "title": "Ink Pen"
    },
    "generator": "Sketchfab-12.66.0",
    "version": "2.0"
  },
  "bufferViews": [
    {
      "buffer": 0,
      "byteLength": 103188,
      "name": "floatBufferViews",
      "target": 34963
    },
    {
      "buffer": 0,
      "byteLength": 57720,
      "byteOffset": 103188,
      "byteStride": 8,
      "name": "floatBufferViews",
      "target": 34962
    },
    {
      "buffer": 0,
      "byteLength": 182160,
      "byteOffset": 160908,
      "byteStride": 12,
      "name": "floatBufferViews",
      "target": 34962
    },
    {
      "buffer": 0,
      "byteLength": 528,
      "byteOffset": 343068,
      "name": "floatBufferViews"
    },
    {
      "buffer": 0,
      "byteLength": 1536,
      "byteOffset": 343596,
      "byteStride": 12,
      "name": "floatBufferViews"
    },
    {
      "buffer": 0,
      "byteLength": 64,
      "byteOffset": 345132,
      "byteStride": 16,
      "name": "floatBufferViews"
    }
  ],
  "buffers": [
    {
      "byteLength": 345196,
      "uri": "scene.bin"
    }
  ],
  "extensionsRequired": [
    "KHR_materials_pbrSpecularGlossiness"
  ],
  "extensionsUsed": [
    "KHR_materials_pbrSpecularGlossiness"
  ],
  "materials": [
    {
      "doubleSided": true,
      "extensions": {
        "KHR_materials_pbrSpecularGlossiness": {
          "diffuseFactor": [
            0.0,
            0.0,
            0.0,
            1.0
          ],
          "glossinessFactor": 0.7999999970197678,
          "specularFactor": [
            0.0036420831456780434,
            0.0036420831456780434,
            0.0036420831456780434
          ]
        }
      },
      "name": "TopCap"
    },
    {
      "doubleSided": true,
      "extensions": {
        "KHR_materials_pbrSpecularGlossiness": {
          "diffuseFactor": [
            0.0,
            0.0,
            0.0,
            1.0
          ],
          "glossinessFactor": 0.7999999970197678,
          "specularFactor": [
            0.0,
            0.0,
            0.0
          ]
        }
      },
      "name": "material"
    },
    {
      "alphaMode": "BLEND",
      "doubleSided": true,
      "extensions": {
        "KHR_materials_pbrSpecularGlossiness": {
          "diffuseFactor": [
            0.0,
            0.0,
            0.0,
            0.15
          ],
          "glossinessFactor": 0.5478991568088531,
          "specularFactor": [
            0.0,
            0.0,
            0.0
          ]
        }
      },
      "name": "EmptyInk"
    },
    {
      "doubleSided": true,
      "extensions": {
        "KHR_materials_pbrSpecularGlossiness": {
          "diffuseFactor": [
            0.0,
            0.0,
            0.0,
            1.0
          ],
          "glossinessFactor": 0.9600000008940697,
          "specularFactor": [
            0.800000011920929,
            0.800000011920929,
            0.800000011920929
          ]
        }
      },
      "name": "PenTip"
    },
    {
      "alphaMode": "BLEND",
      "doubleSided": true,
      "extensions": {
        "KHR_materials_pbrSpecularGlossiness": {
          "diffuseFactor": [
            0.0,
            0.0,
            0.0,
            0.3587486612020055
          ],
          "glossinessFactor": 0.9596638642251492,
          "specularFactor": [
            0.19017766416072845,
            0.19017766416072845,
            0.19017766416072845
          ]
        }
      },
      "name": "Body"
    }
  ],
  "meshes": [
    {
      "name": "PenBody_0",
      "primitives": [
        {
          "attributes": {
            "NORMAL": 1,
            "POSITION": 0,
            "TEXCOORD_0": 2
          },
          "indices": 3,
          "material": 4,
          "mode": 4
        }
      ]
    },
    {
      "name": "PenBody_1",
      "primitives": [
        {
          "attributes": {
            "NORMAL": 5,
            "POSITION": 4,
            "TEXCOORD_0": 6
          },
          "indices": 7,
          "material": 0,
          "mode": 4
        }
      ]
    },
    {
      "name": "Cylinder.002_0",
      "primitives": [
        {
          "attributes": {
            "NORMAL": 9,
            "POSITION": 8,
            "TEXCOORD_0": 10
          },
          "indices": 11,
          "material": 1,
          "mode": 4
        }
      ]
    },
    {
      "name": "Cylinder.002_1",
      "primitives": [
        {
          "attributes": {
            "NORMAL": 13,
            "POSITION": 12,
            "TEXCOORD_0": 14
          },
          "indices": 15,
          "material": 2,
          "mode": 4
        }
      ]
    },
    {
      "name": "Cylinder.002_2",
      "primitives": [
        {
          "attributes": {
            "NORMAL": 17,
            "POSITION": 16,
            "TEXCOORD_0": 18
          },
          "indices": 19,
          "material": 3,
          "mode": 4
        }
      ]
    },
    {
      "name": "Cylinder.000_0",
      "primitives": [
        {
          "attributes": {
            "NORMAL": 21,
            "POSITION": 20
          },
          "indices": 22,
          "material": 0,
          "mode": 4
        }
      ]
    }
  ],
  "nodes": [
    {
      "children": [
        1
      ],
      "matrix": [
        1.0,
        0.0,
        0.0,
        0.0,
        0.0,
        2.220446049250313e-16,
        -1.0,
        0.0,
        0.0,
        1.0,
        2.220446049250313e-16,
        0.0,
        0.0,
        0.0,
        0.0,
        1.0
      ],
      "name": "Sketchfab_model"
    },
    {
      "children": [
        2,
        5,
        7,
        11
      ],
      "name": "Root"
    },
    {
      "children": [
        3,
        4
      ],
      "matrix": [
        0.0,
        0.41048000000000007,
        0.0,
        0.0,
        -0.0,
        0.0,
        0.41048000000000007,
        0.0,
        3.73651,
        -0.0,
        0.0,
        0.0,
        0.0,
        0.0,
        0.0,
        1.0
      ],
      "name": "PenBody"
    },
    {
      "mesh": 0,
      "name": "PenBody_0"
    },
    {
      "mesh": 1,
      "name": "PenBody_1"
    },
    {
      "children": [
        6
      ],
      "matrix": [
        -0.29086000000000006,
        0.9551700000000001,
        -0.05519000000000001,
        0.0,
        -0.7711,
        -0.19988000000000003,
        0.6045200000000001,
        0.0,
        0.5663900000000001,
        0.21839000000000003,
        0.7946700000000001,
        0.0,
        2.0960399999999995,
        1.00545,
        1.09774,
        1.0
      ],
      "name": "Lamp"
    },
    {
      "name": "Lamp"
    },
    {
      "children": [
        8,
        9,
        10
      ],
      "name": "Cylinder.002",
      "rotation": [
        0.0,
        0.7071067690849304,
        0.0,
        0.7071067690849304
      ],
      "scale": [
        0.10611999779939651,
        0.10611999779939651,
        3.449700117111206
      ],
      "translation": [
        -1.1917699575424194,
        0.0,
        0.0
      ]
    },
    {
      "mesh": 2,
      "name": "Cylinder.002_0"
    },
    {
      "mesh": 3,
      "name": "Cylinder.002_1"
    },
    {
      "mesh": 4,
      "name": "Cylinder.002_2"
    },
    {
      "children": [
        12
      ],
      "name": "Cylinder.000",
      "rotation": [
        0.5,
        0.5,
        0.5,
        0.5
      ],
      "scale": [
        0.41047999262809753,
        0.41047999262809753,
        3.373150110244751
      ],
      "translation": [
        0.31431999802589417,
        0.0,
        0.0
      ]
    },
    {
      "mesh": 5,
      "name": "Cylinder.000_0"
    }
  ],
  "scene": 0,
  "scenes": [
    {
      "name": "Sketchfab_Scene",
      "nodes": [
        0
      ]
    }
  ]
}
