{
  "accessors": [
    {
      "bufferView": 2,
      "componentType": 5126,
      "count": 36767,
      "max": [
        0.07758353650569916,
        0.012997512705624104,
        0.007622906472533941
      ],
      "min": [
        -0.05299022048711777,
        -0.012997525744140148,
        -0.007622906472533941
      ],
      "type": "VEC3"
    },
    {
      "bufferView": 2,
      "byteOffset": 441204,
      "componentType": 5126,
      "count": 36767,
      "max": [
        1.0,
        1.0,
        1.0
      ],
      "min": [
        -1.0,
        -1.0,
        -1.0
      ],
      "type": "VEC3"
    },
    {
      "bufferView": 1,
      "componentType": 5126,
      "count": 36767,
      "max": [
        0.9909816384315491,
        0.9943927526473999
      ],
      "min": [
        0.005607266444712877,
        0.00560726597905159
      ],
      "type": "VEC2"
    },
    {
      "bufferView": 1,
      "byteOffset": 294136,
      "componentType": 5126,
      "count": 36767,
      "max": [
        0.9909816384315491,
        0.9943927526473999
      ],
      "min": [
        0.005607266444712877,
        0.00560726597905159
      ],
      "type": "VEC2"
    },
    {
      "bufferView": 1,
      "byteOffset": 588272,
      "componentType": 5126,
      "count": 36767,
      "max": [
        0.9909816384315491,
        0.9943927526473999
      ],
      "min": [
        0.005607266444712877,
        0.00560726597905159
      ],
      "type": "VEC2"
    },
    {
      "bufferView": 1,
      "byteOffset": 882408,
      "componentType": 5126,
      "count": 36767,
      "max": [
        0.9909816384315491,
        0.9943927526473999
      ],
      "min": [
        0.005607266444712877,
        0.00560726597905159
      ],
      "type": "VEC2"
    },
    {
      "bufferView": 1,
      "byteOffset": 1176544,
      "componentType": 5126,
      "count": 36767,
      "max": [
        0.9909816384315491,
        0.9943927526473999
      ],
      "min": [
        0.005607266444712877,
        0.00560726597905159
      ],
      "type": "VEC2"
    },
    {
      "bufferView": 0,
      "componentType": 5125,
      "count": 199134,
      "type": "SCALAR"
    }
  ],
  "asset": {
    "extras": {
      "author": "Jean-Christophe Sekinger (https://sketchfab.com/jc.sekinger)",
      "license": "CC-BY-4.0 (http://creativecommons.org/licenses/by/4.0/)",
      "source": "https://sketchfab.com/3d-models/germains-stabilo-boss-6c9a53bee17e4a23b02431dea3bde8a6",
      "title": "Germain’s Stabilo Boss"
    },
    "generator": "Sketchfab-16.51.0",
    "version": "2.0"
  },
  "bufferViews": [
    {
      "buffer": 0,
      "byteLength": 796536,
      "name": "floatBufferViews",
      "target": 34963
    },
    {
      "buffer": 0,
      "byteLength": 1470680,
      "byteOffset": 796536,
      "byteStride": 8,
      "name": "floatBufferViews",
      "target": 34962
    },
    {
      "buffer": 0,
      "byteLength": 882408,
      "byteOffset": 2267216,
      "byteStride": 12,
      "name": "floatBufferViews",
      "target": 34962
    }
  ],
  "buffers": [
    {
      "byteLength": 3149624,
      "uri": "scene.bin"
    }
  ],
  "extensionsUsed": [
    "KHR_materials_specular"
  ],
  "images": [
    {
      "uri": "textures/Stabilo_Germain_baseColor.png"
    },
    {
      "uri": "textures/Stabilo_Germain_metallicRoughness.png"
    },
    {
      "uri": "textures/Stabilo_Germain_emissive.png"
    }
  ],
  "materials": [
    {
      "doubleSided": true,
      "emissiveFactor": [
        1.0,
        1.0,
        1.0
      ],
      "emissiveTexture": {
        "index": 2
      },
      "extensions": {
        "KHR_materials_specular": {
          "specularColorFactor": [
            1.0,
            1.0,
            1.0
          ],
          "specularFactor": 0.443545874
        }
      },
      "name": "Stabilo_Germain",
      "pbrMetallicRoughness": {
        "baseColorTexture": {
          "index": 0
        },
        "metallicFactor": 0.0,
        "metallicRoughnessTexture": {
          "index": 1
        }
      }
    }
  ],
  "meshes": [
    {
      "name": "Object_0",
      "primitives": [
        {
          "attributes": {
            "NORMAL": 1,
            "POSITION": 0,
            "TEXCOORD_0": 2,
            "TEXCOORD_1": 3,
            "TEXCOORD_2": 4,
            "TEXCOORD_3": 5,
            "TEXCOORD_4": 6
          },
          "indices": 7,
          "material": 0,
          "mode": 4
        }
      ]
    }
  ],
  "nodes": [
    {
      "children": [
        1
      ],
      "matrix": [
        1.0,
        0.0,
        0.0,
        0.0,
        0.0,
        2.220446049250313e-16,
        -1.0,
        0.0,
        0.0,
        1.0,
        2.220446049250313e-16,
        0.0,
        0.0,
        0.0,
        0.0,
        1.0
      ],
      "name": "Sketchfab_model"
    },
    {
      "children": [
        2
      ],
      "name": "root"
    },
    {
      "children": [
        3
      ],
      "matrix": [
        1.0,
        0.0,
        0.0,
        0.0,
        0.0,
        2.220446049250313e-16,
        1.0,
        0.0,
        0.0,
        -1.0,
        2.220446049250313e-16,
        0.0,
        0.0,
        0.0,
        0.0,
        1.0
      ],
      "name": "GLTF_SceneRootNode"
    },
    {
      "children": [
        4
      ],
      "matrix": [
        1.0,
        0.0,
        0.0,
        0.0,
        0.0,
        1.0,
        0.0,
        0.0,
        0.0,
        0.0,
        1.0,
        0.0,
        -0.023252060636878014,
        0.0012316328939050436,
        0.0,
        1.0
      ],
      "name": "Stabilo_Germain_0"
    },
    {
      "mesh": 0,
      "name": "Object_4"
    }
  ],
  "samplers": [
    {
      "magFilter": 9729,
      "minFilter": 9987,
      "wrapS": 10497,
      "wrapT": 10497
    }
  ],
  "scene": 0,
  "scenes": [
    {
      "name": "Sketchfab_Scene",
      "nodes": [
        0
      ]
    }
  ],
  "textures": [
    {
      "sampler": 0,
      "source": 0
    },
    {
      "sampler": 0,
      "source": 1
    },
    {
      "sampler": 0,
      "source": 2
    }
  ]
}
