{
  "accessors": [
    {
      "bufferView": 2,
      "componentType": 5126,
      "count": 1946,
      "max": [
        0.030440999194979668,
        0.00044999999227002263,
        0.00044999999227002263
      ],
      "min": [
        -0.0004400000034365803,
        -0.00044999999227002263,
        -0.007449999917298555
      ],
      "type": "VEC3"
    },
    {
      "bufferView": 2,
      "byteOffset": 23352,
      "componentType": 5126,
      "count": 1946,
      "max": [
        1.0,
        0.9999959468841553,
        0.9985002875328064
      ],
      "min": [
        -1.0,
        -0.9999959468841553,
        -0.9985002875328064
      ],
      "type": "VEC3"
    },
    {
      "bufferView": 3,
      "componentType": 5126,
      "count": 1946,
      "max": [
        0.8980389833450317,
        0.8980389833450317,
        0.8980389833450317,
        1.0
      ],
      "min": [
        0.8980389833450317,
        0.8980389833450317,
        0.8980389833450317,
        1.0
      ],
      "type": "VEC4"
    },
    {
      "bufferView": 1,
      "componentType": 5126,
      "count": 1946,
      "max": [
        0.0,
        0.0
      ],
      "min": [
        0.0,
        0.0
      ],
      "type": "VEC2"
    },
    {
      "bufferView": 0,
      "componentType": 5125,
      "count": 11664,
      "type": "SCALAR"
    }
  ],
  "asset": {
    "extras": {
      "author": "Marc Hennessy (https://sketchfab.com/marchennessy20)",
      "license": "CC-BY-4.0 (http://creativecommons.org/licenses/by/4.0/)",
      "source": "https://sketchfab.com/3d-models/paper-clip-96a6be214d2545ac8321da9ba3395bb7",
      "title": "Paper Clip"
    },
    "generator": "Sketchfab-12.67.0",
    "version": "2.0"
  },
  "bufferViews": [
    {
      "buffer": 0,
      "byteLength": 46656,
      "name": "floatBufferViews",
      "target": 34963
    },
    {
      "buffer": 0,
      "byteLength": 15568,
      "byteOffset": 46656,
      "byteStride": 8,
      "name": "floatBufferViews",
      "target": 34962
    },
    {
      "buffer": 0,
      "byteLength": 46704,
      "byteOffset": 62224,
      "byteStride": 12,
      "name": "floatBufferViews",
      "target": 34962
    },
    {
      "buffer": 0,
      "byteLength": 31136,
      "byteOffset": 108928,
      "byteStride": 16,
      "name": "floatBufferViews",
      "target": 34962
    }
  ],
  "buffers": [
    {
      "byteLength": 140064,
      "uri": "scene.bin"
    }
  ],
  "materials": [
    {
      "doubleSided": true,
      "name": "material_0",
      "pbrMetallicRoughness": {
        "baseColorFactor": [
          0.898039,
          0.898039,
          0.898039,
          1.0
        ],
        "metallicFactor": 0.0,
        "roughnessFactor": 0.6
      }
    }
  ],
  "meshes": [
    {
      "name": "Object_0",
      "primitives": [
        {
          "attributes": {
            "COLOR_0": 2,
            "NORMAL": 1,
            "POSITION": 0,
            "TEXCOORD_0": 3
          },
          "indices": 4,
          "material": 0,
          "mode": 4
        }
      ]
    }
  ],
  "nodes": [
    {
      "children": [
        1
      ],
      "matrix": [
        1.0,
        0.0,
        0.0,
        0.0,
        0.0,
        2.220446049250313e-16,
        -1.0,
        0.0,
        0.0,
        1.0,
        2.220446049250313e-16,
        0.0,
        0.0,
        0.0,
        0.0,
        1.0
      ],
      "name": "Sketchfab_model"
    },
    {
      "children": [
        2
      ],
      "matrix": [
        1.0,
        0.0,
        0.0,
        0.0,
        0.0,
        0.0,
        1.0,
        0.0,
        0.0,
        -1.0,
        0.0,
        0.0,
        0.0,
        0.0,
        0.0,
        1.0
      ],
      "name": "16d760a82ff0423ab1344ddf2cda541b.wrl.cleaner"
    },
    {
      "mesh": 0,
      "name": "Object_2"
    }
  ],
  "scene": 0,
  "scenes": [
    {
      "name": "Sketchfab_Scene",
      "nodes": [
        0
      ]
    }
  ]
}
